<svg width="16" height="16" viewBox="0 0 16 16" fill="none" xmlns="http://www.w3.org/2000/svg">
<path d="M5.49533 4.89328L1.242 5.50995L1.16667 5.52528C1.05263 5.55556 0.948664 5.61555 0.865395 5.69915C0.782127 5.78274 0.722536 5.88694 0.692708 6.0011C0.662881 6.11526 0.663885 6.23529 0.695619 6.34893C0.727352 6.46257 0.788678 6.56576 0.873334 6.64795L3.95467 9.64728L3.228 13.8839L3.21933 13.9573C3.21235 14.0752 3.23684 14.1929 3.2903 14.2983C3.34376 14.4037 3.42426 14.4929 3.52356 14.557C3.62286 14.621 3.73739 14.6575 3.85543 14.6627C3.97347 14.6679 4.09078 14.6416 4.19533 14.5866L7.99933 12.5866L11.7947 14.5866L11.8613 14.6173C11.9714 14.6606 12.091 14.6739 12.2078 14.6558C12.3247 14.6377 12.4347 14.5888 12.5264 14.5141C12.6181 14.4395 12.6884 14.3418 12.7299 14.231C12.7714 14.1203 12.7827 14.0005 12.7627 13.8839L12.0353 9.64728L15.118 6.64728L15.17 6.59062C15.2443 6.49913 15.293 6.38958 15.3111 6.27314C15.3293 6.15671 15.3163 6.03753 15.2734 5.92777C15.2305 5.818 15.1593 5.72157 15.067 5.64829C14.9747 5.57501 14.8646 5.52751 14.748 5.51062L10.4947 4.89328L8.59333 1.03995C8.53832 0.928305 8.45315 0.834292 8.34746 0.768551C8.24178 0.702811 8.1198 0.667969 7.99533 0.667969C7.87087 0.667969 7.74889 0.702811 7.64321 0.768551C7.53752 0.834292 7.45235 0.928305 7.39733 1.03995L5.49533 4.89328Z" fill="#4B7DFA"/>
</svg>
