<svg width="28" height="28" viewBox="0 0 28 28" fill="none" xmlns="http://www.w3.org/2000/svg">
<path d="M3.0625 8.53125C3.0625 7.95109 3.29297 7.39469 3.7032 6.98445C4.11344 6.57422 4.66984 6.34375 5.25 6.34375H22.75C23.3302 6.34375 23.8866 6.57422 24.2968 6.98445C24.707 7.39469 24.9375 7.95109 24.9375 8.53125V19.4688C24.9375 20.0489 24.707 20.6053 24.2968 21.0155C23.8866 21.4258 23.3302 21.6562 22.75 21.6562H5.25C4.66984 21.6562 4.11344 21.4258 3.7032 21.0155C3.29297 20.6053 3.0625 20.0489 3.0625 19.4688V8.53125Z" stroke="#9393A8" stroke-width="1.5" stroke-linecap="round" stroke-linejoin="round"/>
<path d="M10.7188 14C10.7188 14.8702 11.0645 15.7048 11.6798 16.3202C12.2952 16.9355 13.1298 17.2812 14 17.2812C14.8702 17.2812 15.7048 16.9355 16.3202 16.3202C16.9355 15.7048 17.2812 14.8702 17.2812 14C17.2812 13.1298 16.9355 12.2952 16.3202 11.6798C15.7048 11.0645 14.8702 10.7188 14 10.7188C13.1298 10.7188 12.2952 11.0645 11.6798 11.6798C11.0645 12.2952 10.7188 13.1298 10.7188 14Z" stroke="#9393A8" stroke-width="1.5" stroke-linecap="round" stroke-linejoin="round"/>
<path d="M10.7188 14H3.0625" stroke="#9393A8" stroke-width="1.5" stroke-linecap="round" stroke-linejoin="round"/>
<path d="M17.2812 14H24.9375" stroke="#9393A8" stroke-width="1.5" stroke-linecap="round" stroke-linejoin="round"/>
</svg>
