<svg width="24" height="24" viewBox="0 0 24 24" fill="none" xmlns="http://www.w3.org/2000/svg">
<path d="M12 12.5C13.3807 12.5 14.5 11.3807 14.5 10C14.5 8.61929 13.3807 7.5 12 7.5C10.6193 7.5 9.5 8.61929 9.5 10C9.5 11.3807 10.6193 12.5 12 12.5Z" fill="#7878F2"/>
<path fill-rule="evenodd" clip-rule="evenodd" d="M20 4.00002C20 2.89545 19.1046 2.00002 18 2.00002L6.00001 2C4.89544 2 4.00001 2.89543 4.00001 4L4 20C4 21.1046 4.89543 22 6 22H18C19.1046 22 20 21.1046 20 20V4.00002ZM12 14C14.2091 14 16 12.2091 16 10C16 7.79086 14.2091 6 12 6C9.79086 6 8 7.79086 8 10C8 12.2091 9.79086 14 12 14ZM8 17.75V16.25H16V17.75H8Z" fill="#7878F2"/>
</svg>
