<svg width="16" height="17" viewBox="0 0 16 17" fill="none" xmlns="http://www.w3.org/2000/svg">
<g clip-path="url(#clip0_20_140)">
<path d="M12.0001 1.57191C13.2068 2.2686 14.2105 3.26833 14.912 4.47215C15.6135 5.67597 15.9885 7.04213 15.9997 8.43538C16.011 9.82864 15.6582 11.2007 14.9762 12.4157C14.2942 13.6307 13.3068 14.6465 12.1115 15.3626C10.9163 16.0786 9.55481 16.4702 8.16178 16.4984C6.76875 16.5266 5.39251 16.1904 4.16929 15.5233C2.94608 14.8562 1.91832 13.8811 1.18775 12.6947C0.457175 11.5083 0.049128 10.1517 0.00400005 8.75911L0 8.49991L0.00400005 8.24071C0.0488031 6.85911 0.450844 5.51268 1.17093 4.33271C1.89101 3.15273 2.90456 2.17948 4.11276 1.50782C5.32097 0.836164 6.6826 0.489031 8.0649 0.500264C9.44721 0.511497 10.803 0.880712 12.0001 1.57191ZM10.9657 6.33431C10.828 6.19657 10.6447 6.11383 10.4503 6.1016C10.2559 6.08938 10.0636 6.14851 9.90972 6.26791L9.83452 6.33431L7.20009 8.96791L6.16568 7.93431L6.09048 7.86791C5.93654 7.7486 5.74437 7.68953 5.54999 7.70179C5.35562 7.71406 5.17239 7.79681 5.03467 7.93452C4.89695 8.07224 4.81421 8.25546 4.80194 8.44984C4.78968 8.64421 4.84874 8.83638 4.96806 8.99031L5.03446 9.06551L6.63448 10.6655L6.70968 10.7319C6.84998 10.8408 7.02251 10.8998 7.20009 10.8998C7.37767 10.8998 7.55019 10.8408 7.6905 10.7319L7.7657 10.6655L10.9657 7.46551L11.0321 7.39031C11.1515 7.23639 11.2107 7.04419 11.1985 6.84977C11.1862 6.65535 11.1035 6.47207 10.9657 6.33431Z" fill="white"/>
</g>
<defs>
<clipPath id="clip0_20_140">
<rect width="16" height="16" fill="white" transform="translate(0 0.5)"/>
</clipPath>
</defs>
</svg>
