<svg width="19" height="18" viewBox="0 0 19 18" fill="none" xmlns="http://www.w3.org/2000/svg">
<path d="M14 5.25C14.5809 5.37043 15.0191 5.57144 15.3713 5.90692C16.25 6.74386 16.25 8.09093 16.25 10.785C16.25 13.4791 16.25 14.8261 15.3713 15.6631C14.4927 16.5 13.0784 16.5 10.25 16.5H8.75C5.92157 16.5 4.50736 16.5 3.62868 15.6631C2.75 14.8261 2.75 13.4791 2.75 10.785C2.75 8.09093 2.75 6.74386 3.62868 5.90692C3.98088 5.57144 4.41912 5.37043 5 5.25" stroke="white" stroke-width="1.5" stroke-linecap="round"/>
<path d="M9.51898 1.50039L9.5 10.5M9.51898 1.50039C9.39703 1.49535 9.27432 1.53894 9.16497 1.63119C8.48517 2.20505 7.25 3.69665 7.25 3.69665M9.51898 1.50039C9.62833 1.50493 9.73715 1.54857 9.8351 1.63131C10.5148 2.20528 11.75 3.69665 11.75 3.69665" stroke="white" stroke-width="1.5" stroke-linecap="round" stroke-linejoin="round"/>
</svg>
