<svg width="16" height="16" viewBox="0 0 16 16" fill="none" xmlns="http://www.w3.org/2000/svg">
<path d="M13.2697 2.73152C13.0394 2.50118 13.0394 2.12872 13.2697 1.90084C13.5 1.67295 13.8725 1.6705 14.1004 1.90084L15.6686 3.46908C15.7789 3.57935 15.8402 3.72882 15.8402 3.88565C15.8402 4.04247 15.7789 4.19195 15.6686 4.30221L14.1004 5.87046C13.87 6.10079 13.4976 6.10079 13.2697 5.87046C13.0418 5.64012 13.0394 5.26766 13.2697 5.03978L13.8333 4.47619L9.56963 4.47129C9.24373 4.47129 8.98153 4.2091 8.98153 3.8832C8.98153 3.5573 9.24373 3.29511 9.56963 3.29511H13.8357L13.2697 2.73152ZM2.73306 10.9648L2.16947 11.5284H6.43314C6.75904 11.5284 7.02123 11.7906 7.02123 12.1165C7.02123 12.4424 6.75904 12.7046 6.43314 12.7046H2.16702L2.73061 13.2682C2.96094 13.4985 2.96094 13.871 2.73061 14.0988C2.50027 14.3267 2.12781 14.3292 1.89993 14.0988L0.331684 12.533C0.221416 12.4228 0.160156 12.2733 0.160156 12.1165C0.160156 11.9597 0.221416 11.8102 0.331684 11.6999L1.89993 10.1317C2.13026 9.90134 2.50272 9.90134 2.73061 10.1317C2.9585 10.362 2.96094 10.7345 2.73061 10.9624L2.73306 10.9648ZM2.51252 3.29511H8.44C8.34934 3.47153 8.29543 3.67001 8.29543 3.8832C8.29543 4.58646 8.86637 5.1574 9.56963 5.1574H12.4464C12.3484 5.57396 12.4611 6.02728 12.7845 6.35318C13.282 6.85061 14.0881 6.85061 14.5856 6.35318L15.0585 5.88026V11.1363C15.0585 12.0013 14.3552 12.7046 13.4902 12.7046H7.56276C7.65343 12.5281 7.70734 12.3297 7.70734 12.1165C7.70734 11.4132 7.1364 10.8423 6.43314 10.8423H3.55639C3.6544 10.4257 3.54168 9.9724 3.21823 9.6465C2.72081 9.14907 1.91463 9.14907 1.4172 9.6465L0.944279 10.1194V4.86335C0.944279 3.99837 1.64754 3.29511 2.51252 3.29511ZM4.08077 4.86335H2.51252V6.4316C3.37751 6.4316 4.08077 5.72834 4.08077 4.86335ZM13.4902 9.56809C12.6253 9.56809 11.922 10.2713 11.922 11.1363H13.4902V9.56809ZM8.00138 10.3522C9.81223 10.3523 10.944 8.39203 10.0386 6.82375C9.61845 6.09587 8.84184 5.64747 8.00138 5.64747C6.19053 5.64747 5.05874 7.60778 5.96417 9.17602C6.3844 9.90388 7.16092 10.3522 8.00138 10.3522Z" fill="#4B7DFA"/>
</svg>
