<svg width="16" height="16" viewBox="0 0 16 16" fill="none" xmlns="http://www.w3.org/2000/svg">
<path d="M6.95 0.942738C7.25722 0.77332 7.60023 0.679129 7.95089 0.667888C8.30155 0.656647 8.64989 0.728677 8.96733 0.878072L9.094 0.942738L13.6107 3.60607L13.6747 3.64807L13.736 3.6994L13.8073 3.7494C14.039 3.92314 14.2332 4.14191 14.3783 4.39257C14.5233 4.64323 14.6162 4.92062 14.6513 5.20807L14.6633 5.34274L14.6667 5.47874V10.3347C14.6667 11.0721 14.2867 11.7541 13.6973 12.1301L13.584 12.1967L9.04867 15.0647C8.43667 15.4007 7.70267 15.4214 7.046 15.1101L6.91533 15.0434L2.452 12.2187C2.13432 12.045 1.86565 11.7939 1.6709 11.4887C1.47616 11.1835 1.36165 10.834 1.338 10.4727L1.33333 10.3347V5.47807C1.33333 4.74074 1.71333 4.0594 2.31733 3.67474L6.95 0.942738ZM8 10.0001C7.83671 10.0001 7.67911 10.06 7.55708 10.1685C7.43506 10.2771 7.3571 10.4266 7.338 10.5887L7.33333 10.6667L7.338 10.7514C7.35727 10.9134 7.4353 11.0628 7.55731 11.1711C7.67931 11.2795 7.83682 11.3393 8 11.3393C8.16317 11.3393 8.32068 11.2795 8.44269 11.1711C8.56469 11.0628 8.64272 10.9134 8.662 10.7514L8.66667 10.6734L8.662 10.5887C8.64289 10.4266 8.56494 10.2771 8.44291 10.1685C8.32089 10.06 8.16329 10.0001 8 10.0001ZM8.912 5.5514C8.51292 5.34738 8.05658 5.2843 7.61712 5.37241C7.17767 5.46052 6.78091 5.69464 6.49133 6.03674C6.38092 6.16607 6.32411 6.33271 6.33252 6.50256C6.34093 6.67241 6.41393 6.83262 6.53658 6.95041C6.65923 7.06821 6.82225 7.13468 6.9923 7.13623C7.16235 7.13777 7.32656 7.07428 7.45133 6.95874L7.56533 6.83874C7.66368 6.74846 7.78733 6.69048 7.91964 6.6726C8.05194 6.65472 8.18654 6.6778 8.30533 6.73874C8.43339 6.80355 8.53711 6.90795 8.60108 7.03643C8.66505 7.16491 8.68585 7.3106 8.66038 7.45184C8.63492 7.59309 8.56456 7.72235 8.45975 7.8204C8.35494 7.91845 8.22129 7.98006 8.07867 7.99607L7.924 8.00407C7.75444 8.02273 7.59848 8.10567 7.48822 8.23584C7.37796 8.366 7.32179 8.53347 7.33127 8.70379C7.34076 8.87411 7.41517 9.03432 7.53919 9.15144C7.66321 9.26856 7.82741 9.33368 7.998 9.3334C8.44775 9.33476 8.88483 9.18448 9.23865 8.90684C9.59248 8.62919 9.84239 8.2404 9.94804 7.80323C10.0537 7.36606 10.0089 6.90605 9.82093 6.49747C9.63294 6.08888 9.31273 5.75559 8.912 5.5514Z" fill="#4B7DFA"/>
</svg>
