<svg width="24" height="24" viewBox="0 0 24 24" fill="none" xmlns="http://www.w3.org/2000/svg">
<path d="M3.5625 10.125C3.5625 10.9868 3.73224 11.8402 4.06204 12.6364C4.39184 13.4326 4.87523 14.156 5.48461 14.7654C6.094 15.3748 6.81744 15.8582 7.61364 16.188C8.40984 16.5178 9.2632 16.6875 10.125 16.6875C10.9868 16.6875 11.8402 16.5178 12.6364 16.188C13.4326 15.8582 14.156 15.3748 14.7654 14.7654C15.3748 14.156 15.8582 13.4326 16.188 12.6364C16.5178 11.8402 16.6875 10.9868 16.6875 10.125C16.6875 9.2632 16.5178 8.40984 16.188 7.61364C15.8582 6.81744 15.3748 6.094 14.7654 5.48461C14.156 4.87523 13.4326 4.39184 12.6364 4.06204C11.8402 3.73224 10.9868 3.5625 10.125 3.5625C9.2632 3.5625 8.40984 3.73224 7.61364 4.06204C6.81744 4.39184 6.094 4.87523 5.48461 5.48461C4.87523 6.094 4.39184 6.81744 4.06204 7.61364C3.73224 8.40984 3.5625 9.2632 3.5625 10.125Z" stroke="black" stroke-width="1.5" stroke-linecap="round" stroke-linejoin="round"/>
<path d="M20.4375 20.4375L14.8125 14.8125" stroke="black" stroke-width="1.5" stroke-linecap="round" stroke-linejoin="round"/>
</svg>
