<svg width="28" height="28" viewBox="0 0 28 28" fill="none" xmlns="http://www.w3.org/2000/svg">
<path d="M25.6667 13.9999C25.6667 7.55659 20.4433 2.33325 14 2.33325C7.55669 2.33325 2.33334 7.55659 2.33334 13.9999C2.33334 20.4432 7.55669 25.6666 14 25.6666C20.4433 25.6666 25.6667 20.4432 25.6667 13.9999Z" stroke="#6B6BE7" stroke-width="1.75"/>
<path d="M23.3333 6.64874C22.2429 6.72734 20.8461 7.14953 19.8776 8.40315C18.1283 10.6675 16.3789 10.8564 15.2127 10.1016C13.4632 8.96949 14.9334 7.13567 12.8801 6.13909C11.542 5.48957 11.3554 3.72211 12.1002 2.33325" stroke="#6B6BE7" stroke-width="1.75" stroke-linejoin="round"/>
<path d="M2.33334 12.8333C3.22293 13.6057 4.46888 14.3128 5.93687 14.3128C8.96984 14.3128 9.57644 14.8923 9.57644 17.2104C9.57644 19.5284 9.57644 19.5284 10.183 21.2669C10.5776 22.3977 10.7155 23.5286 9.92904 24.4999" stroke="#6B6BE7" stroke-width="1.75" stroke-linejoin="round"/>
<path d="M2.33334 12.8333C3.22293 13.6057 4.46888 14.3128 5.93687 14.3128C8.96984 14.3128 9.57644 14.8923 9.57644 17.2104C9.57644 19.5284 9.57644 19.5284 10.183 21.2669C10.5776 22.3977 10.7155 23.5286 9.92904 24.4999" fill="#6B6BE7"/>
<path d="M2.33334 12.8333C3.22293 13.6057 4.46888 14.3128 5.93687 14.3128C8.96984 14.3128 9.57644 14.8923 9.57644 17.2104C9.57644 19.5284 9.57644 19.5284 10.183 21.2669C10.5776 22.3977 10.7155 23.5286 9.92904 24.4999L6.41668 22.7499L3.50001 19.2499L2.33334 12.8333Z" fill="#6B6BE7"/>
<path d="M25.6666 15.6944C24.6317 15.098 23.3333 14.8527 22.0189 15.7973C19.504 17.6048 17.7699 16.1071 16.9889 17.6038C15.8392 19.8071 19.945 20.4997 16.3333 25.6667" stroke="#6B6BE7" stroke-width="1.75" stroke-linejoin="round"/>
<path d="M25.6666 15.6944C24.6317 15.098 23.3333 14.8527 22.0189 15.7973C19.504 17.6048 17.7699 16.1071 16.9889 17.6038C15.8392 19.8071 19.945 20.4997 16.3333 25.6667" fill="#6B6BE7"/>
<path d="M25.6666 15.6944C24.6317 15.098 23.3333 14.8527 22.0189 15.7973C19.504 17.6048 17.7699 16.1071 16.9889 17.6038C15.8392 19.8071 19.945 20.4997 16.3333 25.6667L21 23.3334L23.9166 19.2501L25.6666 15.6944Z" fill="#6B6BE7"/>
<path d="M23.3334 6.64874C22.2429 6.72734 20.8461 7.14953 19.8776 8.40315C18.1283 10.6675 16.3788 10.8564 15.2127 10.1016C13.4632 8.96949 14.9334 7.13567 12.8801 6.13909C11.542 5.48957 11.3554 3.72211 12.1002 2.33325" fill="#6B6BE7"/>
<path d="M23.3334 6.64874C22.2429 6.72734 20.8461 7.14953 19.8776 8.40315C18.1283 10.6675 16.3788 10.8564 15.2127 10.1016C13.4632 8.96949 14.9334 7.13567 12.8801 6.13909C11.542 5.48957 11.3554 3.72211 12.1002 2.33325H13.4167L18.0834 2.91659L23.3334 6.64874Z" fill="#6B6BE7"/>
</svg>
