<svg width="16" height="16" viewBox="0 0 16 16" fill="none" xmlns="http://www.w3.org/2000/svg">
<path d="M8 1.33325C8.88406 1.33325 9.7319 1.68444 10.357 2.30956C10.9821 2.93468 11.3333 3.78253 11.3333 4.66658V6.66658C11.8638 6.66658 12.3725 6.8773 12.7475 7.25237C13.1226 7.62744 13.3333 8.13615 13.3333 8.66659V12.6666C13.3333 13.197 13.1226 13.7057 12.7475 14.0808C12.3725 14.4559 11.8638 14.6666 11.3333 14.6666H4.66667C4.13623 14.6666 3.62753 14.4559 3.25245 14.0808C2.87738 13.7057 2.66667 13.197 2.66667 12.6666V8.66659C2.66667 8.13615 2.87738 7.62744 3.25245 7.25237C3.62753 6.8773 4.13623 6.66658 4.66667 6.66658V4.66658C4.66667 3.78253 5.01786 2.93468 5.64298 2.30956C6.2681 1.68444 7.11595 1.33325 8 1.33325ZM8 9.33325C7.66362 9.33315 7.33962 9.46019 7.09297 9.68892C6.84631 9.91764 6.69523 10.2311 6.67 10.5666L6.66667 10.6666C6.66667 10.9303 6.74487 11.1881 6.89137 11.4073C7.03788 11.6266 7.24612 11.7975 7.48976 11.8984C7.73339 11.9993 8.00148 12.0257 8.26012 11.9743C8.51876 11.9229 8.75634 11.7959 8.94281 11.6094C9.12928 11.4229 9.25627 11.1853 9.30771 10.9267C9.35916 10.6681 9.33276 10.4 9.23184 10.1563C9.13092 9.91271 8.96003 9.70447 8.74076 9.55796C8.5215 9.41145 8.26371 9.33325 8 9.33325ZM8 2.66659C7.46957 2.66659 6.96086 2.8773 6.58579 3.25237C6.21071 3.62744 6 4.13615 6 4.66658V6.66658H10V4.66658C10 4.13615 9.78929 3.62744 9.41421 3.25237C9.03914 2.8773 8.53043 2.66659 8 2.66659Z" fill="#4B7DFA"/>
</svg>
