<svg width="16" height="16" viewBox="0 0 16 16" fill="none" xmlns="http://www.w3.org/2000/svg">
<path d="M12.222 1.33325C13.5287 1.33325 14.5953 2.35792 14.6633 3.64792L14.6667 3.77792V12.2219C14.6667 13.5286 13.642 14.5953 12.352 14.6633L12.222 14.6666H3.778C3.15212 14.6666 2.55006 14.4266 2.09587 13.996C1.64168 13.5653 1.36995 12.9769 1.33667 12.3519L1.33333 12.2219V3.77792C1.33333 2.47125 2.358 1.40459 3.648 1.33659L3.778 1.33325H12.222ZM5.33333 11.3333H4L3.922 11.3379C3.75327 11.358 3.59857 11.4417 3.48951 11.572C3.38045 11.7023 3.32526 11.8694 3.33522 12.039C3.34518 12.2086 3.41953 12.368 3.54309 12.4847C3.66664 12.6013 3.83008 12.6664 4 12.6666H5.33333L5.41133 12.6619C5.58006 12.6418 5.73476 12.5581 5.84382 12.4278C5.95288 12.2975 6.00807 12.1305 5.99811 11.9608C5.98815 11.7912 5.9138 11.6318 5.79024 11.5152C5.66669 11.3985 5.50325 11.3334 5.33333 11.3333ZM8 9.33325H4L3.922 9.33792C3.75327 9.35799 3.59857 9.44173 3.48951 9.57203C3.38045 9.70233 3.32526 9.86936 3.33522 10.039C3.34518 10.2086 3.41953 10.368 3.54309 10.4847C3.66664 10.6013 3.83008 10.6664 4 10.6666H8L8.078 10.6619C8.24673 10.6418 8.40143 10.5581 8.51049 10.4278C8.61955 10.2975 8.67474 10.1305 8.66478 9.96085C8.65482 9.79122 8.58047 9.6318 8.45691 9.51515C8.33335 9.39851 8.16992 9.33344 8 9.33325ZM6.66667 7.33325H4L3.922 7.33792C3.75327 7.35799 3.59857 7.44173 3.48951 7.57203C3.38045 7.70233 3.32526 7.86936 3.33522 8.03899C3.34518 8.20862 3.41953 8.36804 3.54309 8.48469C3.66664 8.60133 3.83008 8.6664 4 8.66659H6.66667L6.74467 8.66192C6.9134 8.64185 7.0681 8.55811 7.17716 8.42781C7.28622 8.2975 7.3414 8.13048 7.33145 7.96085C7.32149 7.79122 7.24714 7.6318 7.12358 7.51515C7.00002 7.3985 6.83659 7.33344 6.66667 7.33325Z" fill="#4B7DFA"/>
</svg>
