<svg width="24" height="24" viewBox="0 0 24 24" fill="none" xmlns="http://www.w3.org/2000/svg">
<path fill-rule="evenodd" clip-rule="evenodd" d="M20.9997 9.31798C20.9687 7.25707 19.7744 5.22749 17.937 4.39098C17.0032 3.96585 15.9203 3.85997 14.791 4.2102C13.8504 4.50191 12.9083 5.09977 11.9999 6.03976C11.0915 5.09977 10.1495 4.50191 9.20883 4.2102C8.07952 3.85997 6.99661 3.96585 6.06283 4.39098C4.22546 5.22749 3.03125 7.25707 3.00007 9.31798L3 9.32761C3 12.3335 4.82971 14.9966 6.76748 16.8656C7.74565 17.809 8.77817 18.577 9.67884 19.1131C10.1289 19.381 10.555 19.5964 10.9325 19.7469C11.2932 19.8907 11.6695 20 11.9999 20C12.3303 20 12.7066 19.8907 13.0673 19.7469C13.4448 19.5964 13.8709 19.381 14.321 19.1131C15.2217 18.577 16.2542 17.809 17.2324 16.8656C19.1701 14.9966 20.9999 12.3335 20.9999 9.32761L20.9997 9.31798Z" fill="#4B7DFA"/>
</svg>
