<svg width="24" height="24" viewBox="0 0 24 24" fill="none" xmlns="http://www.w3.org/2000/svg">
<g clip-path="url(#clip0_389_8035)">
<mask id="mask0_389_8035" style="mask-type:luminance" maskUnits="userSpaceOnUse" x="-1" y="0" width="25" height="24">
<path d="M-0.00195312 0H23.9975V23.9995H-0.00195312V0Z" fill="white"/>
</mask>
<g mask="url(#mask0_389_8035)">
<path d="M11.9979 12C11.9979 12 9.74795 7.5 6.09175 7.5C3.5549 7.5 1.49805 9.5156 1.49805 12C1.49805 14.4843 3.5549 16.4999 6.09175 16.4999C7.49795 16.4999 8.7378 15.8821 9.74795 14.9999" stroke="#4B7DFA" stroke-width="2" stroke-miterlimit="10" stroke-linecap="round"/>
<path d="M11.998 12C11.998 12 14.248 16.4999 17.9042 16.4999C20.441 16.4999 22.4979 14.4843 22.4979 12C22.4979 9.5156 20.441 7.5 17.9042 7.5C16.5275 7.5 15.2483 8.1445 14.248 9" stroke="#4B7DFA" stroke-width="2" stroke-miterlimit="10" stroke-linecap="round"/>
</g>
</g>
<defs>
<clipPath id="clip0_389_8035">
<rect width="24" height="24" fill="white"/>
</clipPath>
</defs>
</svg>
