<svg width="16" height="16" viewBox="0 0 16 16" fill="none" xmlns="http://www.w3.org/2000/svg">
<g clip-path="url(#clip0_313_7924)">
<path d="M15.5278 2.03961V11.4491C15.5268 11.6297 15.4479 11.8012 15.3114 11.9195C14.1132 12.9569 12.9676 13.331 11.8754 13.331C10.3926 13.331 9.00782 12.6456 7.71951 12.0097C5.63767 10.9786 3.82791 10.0855 1.72725 11.7447V15.2129C1.72725 15.6957 1.20451 15.9976 0.786306 15.7561C0.592219 15.6441 0.472656 15.437 0.472656 15.2129V2.03961C0.473875 1.85882 0.553037 1.68734 0.689856 1.56914C3.51269 -0.875751 6.04619 0.376493 8.27938 1.48132C10.431 2.54616 12.2964 3.46672 14.4896 1.56914C14.8545 1.25284 15.425 1.45014 15.5164 1.92429C15.5238 1.9623 15.5276 2.00091 15.5278 2.03961Z" fill="#4B7DFA"/>
</g>
<defs>
<clipPath id="clip0_313_7924">
<rect width="16" height="16" fill="white"/>
</clipPath>
</defs>
</svg>
