<svg width="28" height="28" viewBox="0 0 28 28" fill="none" xmlns="http://www.w3.org/2000/svg">
<path d="M3.17287 6.45412C3.72376 5.90324 4.47093 5.59375 5.25 5.59375H22.75C23.5291 5.59375 24.2762 5.90324 24.8271 6.45412C25.378 7.00501 25.6875 7.75218 25.6875 8.53125V13.25H17.9609C17.8113 12.4598 17.4273 11.7263 16.8505 11.1495C16.0945 10.3935 15.0692 9.96875 14 9.96875C12.9308 9.96875 11.9055 10.3935 11.1495 11.1495C10.5727 11.7263 10.1887 12.4598 10.0391 13.25H2.3125V8.53125C2.3125 7.75218 2.62199 7.00501 3.17287 6.45412Z" fill="white"/>
<path d="M2.3125 14.75V19.4688C2.3125 20.2478 2.62199 20.995 3.17287 21.5459C3.72376 22.0968 4.47093 22.4062 5.25 22.4062H22.75C23.5291 22.4062 24.2762 22.0968 24.8271 21.5459C25.378 20.995 25.6875 20.2478 25.6875 19.4688V14.75H17.9609C17.8113 15.5402 17.4273 16.2737 16.8505 16.8505C16.0945 17.6065 15.0692 18.0312 14 18.0312C12.9308 18.0312 11.9055 17.6065 11.1495 16.8505C10.5727 16.2737 10.1887 15.5402 10.0391 14.75H2.3125Z" fill="white"/>
<path d="M15.7899 12.2101C16.2646 12.6848 16.5312 13.3287 16.5312 14C16.5312 14.6713 16.2646 15.3152 15.7899 15.7899C15.3152 16.2646 14.6713 16.5312 14 16.5312C13.3287 16.5312 12.6848 16.2646 12.2101 15.7899C11.7354 15.3152 11.4688 14.6713 11.4688 14C11.4688 13.3287 11.7354 12.6848 12.2101 12.2101C12.6848 11.7354 13.3287 11.4688 14 11.4688C14.6713 11.4688 15.3152 11.7354 15.7899 12.2101Z" fill="white"/>
</svg>
