<svg width="29" height="28" viewBox="0 0 29 28" fill="none" xmlns="http://www.w3.org/2000/svg">
<path d="M15.6087 25.6667C18.6942 25.6667 20.2368 25.6667 21.3445 24.7844C22.4521 23.902 22.8054 22.3916 23.5121 19.3706L25.749 9.80821C26.1402 8.13598 26.3357 7.29987 25.9806 6.6943C25.3358 5.59459 23.692 5.83343 22.6192 5.83343" stroke="#6B6BE7" stroke-width="1.75" stroke-linecap="round" stroke-linejoin="round"/>
<path d="M2.83334 10.4999C2.83334 6.65012 2.83334 4.72521 4.02933 3.52924C5.2253 2.33325 7.15021 2.33325 11 2.33325H14.5C18.3498 2.33325 20.2747 2.33325 21.4707 3.52924C22.6667 4.72521 22.6667 6.65012 22.6667 10.4999V17.4999C22.6667 21.3497 22.6667 23.2746 21.4707 24.4706C20.2747 25.6666 18.3498 25.6666 14.5 25.6666H11C7.15021 25.6666 5.2253 25.6666 4.02933 24.4706C2.83334 23.2746 2.83334 21.3497 2.83334 17.4999V10.4999Z" fill="#6B6BE7" stroke="#6B6BE7" stroke-width="1.75"/>
<path d="M12.75 7C15.3273 7 17.4167 9.08934 17.4167 11.6667C17.4167 14.2439 15.3273 16.3333 12.75 16.3333M12.75 7C10.1727 7 8.08334 9.08934 8.08334 11.6667C8.08334 14.2439 10.1727 16.3333 12.75 16.3333M12.75 7C11.7835 7 11 9.08934 11 11.6667C11 14.2439 11.7835 16.3333 12.75 16.3333M12.75 7C13.7165 7 14.5 9.08934 14.5 11.6667C14.5 14.2439 13.7165 16.3333 12.75 16.3333" stroke="#F5F5F5" stroke-width="1.75"/>
<path d="M8.66666 19.8333H16.8333" stroke="#F5F5F5" stroke-width="1.75" stroke-linecap="round"/>
</svg>
