<svg width="16" height="16" viewBox="0 0 16 16" fill="none" xmlns="http://www.w3.org/2000/svg">
<path fill-rule="evenodd" clip-rule="evenodd" d="M9.0794 3.20587C9.80084 2.71577 10.7131 2.70617 11.3907 3.15124C11.5446 3.25229 11.7089 3.41269 12.1483 3.85204C12.5876 4.29137 12.7481 4.45572 12.8491 4.6096C13.2942 5.2873 13.2846 6.19948 12.7945 6.92092C12.6826 7.08558 12.5094 7.26208 12.054 7.71755L11.394 8.37752C11.1858 8.5858 11.1858 8.92348 11.394 9.13176C11.6023 9.34005 11.9401 9.34005 12.1483 9.13176L12.8082 8.47179L12.8541 8.42601C13.2483 8.03184 13.5006 7.77962 13.6768 7.52031C14.397 6.46008 14.4342 5.08012 13.7407 4.02408C13.5715 3.76652 13.325 3.52011 12.9502 3.14539L12.9025 3.09778L12.8549 3.05015C12.4802 2.6753 12.2338 2.42878 11.9762 2.25964C10.9202 1.5661 9.54024 1.60329 8.48001 2.32353C8.2207 2.49968 7.96847 2.752 7.57429 3.14629L7.52853 3.19207L6.86856 3.85204C6.66028 4.06031 6.66028 4.398 6.86856 4.60628C7.07684 4.81455 7.41453 4.81455 7.6228 4.60628L8.28277 3.94631C8.73824 3.49084 8.91474 3.31772 9.0794 3.20587ZM4.60582 7.62327C4.8141 7.41499 4.8141 7.07729 4.60582 6.86902C4.39753 6.66074 4.05985 6.66074 3.85157 6.86902L3.1916 7.52899L3.14583 7.57476C2.75154 7.96892 2.49923 8.22116 2.32307 8.48047C1.60283 9.54071 1.56565 10.9206 2.25919 11.9767C2.42833 12.2342 2.67484 12.4806 3.04971 12.8554L3.09732 12.903L3.14493 12.9506C3.51965 13.3254 3.76606 13.572 4.02361 13.7411C5.07967 14.4347 6.45961 14.3975 7.51985 13.6772C7.77916 13.5011 8.03139 13.2487 8.42556 12.8545L8.47134 12.8087L9.13131 12.1488C9.33958 11.9405 9.33958 11.6028 9.13131 11.3946C8.92302 11.1862 8.58533 11.1862 8.37705 11.3946L7.71709 12.0545C7.26162 12.51 7.08512 12.6831 6.92047 12.7949C6.19902 13.285 5.28685 13.2946 4.60914 12.8496C4.45526 12.7485 4.29092 12.588 3.85157 12.1488C3.41222 11.7094 3.25184 11.5451 3.15077 11.3911C2.70572 10.7135 2.71532 9.8013 3.20541 9.07985C3.31726 8.9152 3.49039 8.7387 3.94585 8.28324L4.60582 7.62327ZM10.2632 6.49138C10.4714 6.28311 10.4714 5.94541 10.2632 5.73713C10.0549 5.52886 9.7172 5.52886 9.50892 5.73713L5.73768 9.50838C5.52941 9.71665 5.52941 10.0543 5.73768 10.2626C5.94596 10.4709 6.28365 10.4709 6.49193 10.2626L10.2632 6.49138Z" fill="#9393A8"/>
</svg>
