<svg width="19" height="18" viewBox="0 0 19 18" fill="none" xmlns="http://www.w3.org/2000/svg">
<path d="M11.0553 2.91409C11.6142 2.30856 11.8936 2.0058 12.1906 1.8292C12.907 1.40307 13.7893 1.38982 14.5178 1.79424C14.8197 1.96185 15.1077 2.25609 15.6838 2.84457C16.2598 3.43305 16.5479 3.72729 16.7119 4.0357C17.1079 4.77984 17.0949 5.68109 16.6777 6.41303C16.5049 6.71637 16.2085 7.00184 15.6157 7.57275L8.56295 14.3657C7.43966 15.4477 6.878 15.9887 6.17605 16.2628C5.47409 16.537 4.7024 16.5168 3.15902 16.4764L2.94904 16.471C2.47918 16.4587 2.24425 16.4525 2.10769 16.2975C1.97113 16.1425 1.98977 15.9032 2.02706 15.4247L2.04731 15.1648C2.15226 13.8176 2.20473 13.1441 2.46778 12.5387C2.73083 11.9332 3.18458 11.4416 4.09207 10.4584L11.0553 2.91409Z" stroke="white" stroke-width="1.5" stroke-linejoin="round"/>
<path d="M10.25 3L15.5 8.25" stroke="white" stroke-width="1.5" stroke-linejoin="round"/>
<path d="M11 16.5H17" stroke="white" stroke-width="1.5" stroke-linecap="round" stroke-linejoin="round"/>
</svg>
