<svg width="16" height="16" viewBox="0 0 16 16" fill="none" xmlns="http://www.w3.org/2000/svg">
<g clip-path="url(#clip0_313_7936)">
<path d="M8.00013 0.160156C1.9649 0.160156 -1.80712 6.69349 1.2105 11.9202C4.22811 17.1468 11.7722 17.1468 14.7898 11.9202C15.4779 10.7283 15.8401 9.37636 15.8401 8.00016C15.8356 3.67214 12.3282 0.164731 8.00013 0.160156ZM14.634 8.00016C14.6346 8.85123 14.4708 9.69441 14.1515 10.4833L10.7818 8.411C10.6386 8.32259 10.4783 8.26532 10.3114 8.24289L8.59115 8.01071C8.1065 7.94751 7.63118 8.18101 7.385 8.60323H6.72764L6.44118 8.01071C6.28069 7.67636 5.97455 7.43506 5.61195 7.35713L5.00887 7.22671L5.59838 6.19093H6.85806C7.06189 6.19053 7.26233 6.13867 7.44078 6.04016L8.36424 5.53056C8.44537 5.48533 8.52122 5.43122 8.5904 5.36923L10.619 3.53437C11.038 3.15891 11.1401 2.54291 10.8647 2.05231L10.8376 2.00331C13.1545 3.10191 14.6321 5.43599 14.634 8.00016ZM1.36629 8.00016C1.36528 7.01414 1.58526 6.04043 2.01007 5.15062L2.86493 7.43251C3.0097 7.81643 3.3397 8.10043 3.7409 8.18636L5.3564 8.53388L5.64361 9.13093C5.84694 9.54516 6.26771 9.80813 6.72915 9.80939H6.84072L6.29569 11.0329C6.0994 11.4732 6.18418 11.9881 6.51129 12.3423L6.52184 12.3529L8.00013 13.8756L7.85389 14.6295C4.251 14.5456 1.37226 11.604 1.36629 8.00016Z" fill="#4B7DFA"/>
</g>
<defs>
<clipPath id="clip0_313_7936">
<rect width="16" height="16" fill="white"/>
</clipPath>
</defs>
</svg>
