<svg width="223" height="60" viewBox="0 0 223 60" fill="none" xmlns="http://www.w3.org/2000/svg">
<path d="M222.606 40.2438H217.155V12.439H222.606V40.2438Z" fill="#4B7DFA"/>
<path d="M203.772 19.9023C205.625 19.9023 207.211 20.256 208.528 20.9633C209.869 21.6706 210.906 22.695 211.637 24.0365C212.369 25.378 212.735 27.0243 212.735 28.9755V31.6097H199.857C199.906 33.1462 200.357 34.3536 201.211 35.2316C202.089 36.1097 203.296 36.5487 204.833 36.5487C206.125 36.5487 207.296 36.4267 208.345 36.1828C209.394 35.9145 210.479 35.5121 211.601 34.9755V39.1828C210.625 39.6706 209.589 40.0243 208.491 40.2438C207.418 40.4877 206.113 40.6097 204.576 40.6097C202.576 40.6097 200.808 40.2438 199.272 39.5121C197.735 38.756 196.528 37.6219 195.65 36.1097C194.772 34.5975 194.333 32.695 194.333 30.4023C194.333 28.0609 194.723 26.1219 195.503 24.5853C196.308 23.0243 197.418 21.8536 198.833 21.0731C200.247 20.2926 201.894 19.9023 203.772 19.9023ZM203.808 23.7804C202.759 23.7804 201.881 24.1219 201.174 24.8048C200.491 25.4877 200.089 26.5487 199.967 27.9877H207.613C207.613 27.1828 207.467 26.4633 207.174 25.8292C206.906 25.195 206.491 24.695 205.93 24.3292C205.369 23.9633 204.662 23.7804 203.808 23.7804Z" fill="#4B7DFA"/>
<path d="M179.467 40.2437L171.857 20.2681H177.564L181.406 31.6461C181.552 32.0851 181.674 32.5486 181.772 33.0364C181.893 33.5242 181.979 33.9998 182.028 34.4632C182.101 34.9266 182.15 35.3534 182.174 35.7437H182.32C182.345 35.329 182.393 34.89 182.467 34.4266C182.54 33.9632 182.625 33.4998 182.723 33.0364C182.845 32.5486 182.979 32.0851 183.125 31.6461L186.967 20.2681H192.674L185.064 40.2437H179.467Z" fill="#4B7DFA"/>
<path d="M160.826 19.8657C163.509 19.8657 165.558 20.4511 166.972 21.6218C168.411 22.7682 169.131 24.5365 169.131 26.9267V40.2438H165.326L164.265 37.5365H164.119C163.558 38.2438 162.972 38.8291 162.362 39.2926C161.777 39.756 161.094 40.0852 160.314 40.2804C159.558 40.4999 158.619 40.6096 157.497 40.6096C156.326 40.6096 155.265 40.3901 154.314 39.9511C153.387 39.4877 152.655 38.7926 152.119 37.8657C151.582 36.9145 151.314 35.7194 151.314 34.2804C151.314 32.1584 152.058 30.5974 153.545 29.5974C155.033 28.573 157.265 28.0121 160.24 27.9145L163.716 27.8047V26.9267C163.716 25.8779 163.436 25.1096 162.875 24.6218C162.338 24.134 161.582 23.8901 160.606 23.8901C159.631 23.8901 158.679 24.0365 157.753 24.3291C156.826 24.5974 155.899 24.9389 154.972 25.3535L153.179 21.6584C154.253 21.0974 155.436 20.6584 156.728 20.3413C158.045 20.0243 159.411 19.8657 160.826 19.8657ZM161.594 31.0608C159.838 31.1096 158.619 31.4267 157.936 32.0121C157.253 32.5974 156.911 33.3657 156.911 34.3169C156.911 35.1462 157.155 35.7438 157.643 36.1096C158.131 36.4511 158.765 36.6218 159.545 36.6218C160.716 36.6218 161.704 36.2804 162.509 35.5974C163.314 34.8901 163.716 33.9023 163.716 32.634V30.9877L161.594 31.0608Z" fill="#4B7DFA"/>
<path d="M147.89 19.9023C148.159 19.9023 148.476 19.9145 148.842 19.9389C149.207 19.9633 149.5 19.9999 149.72 20.0487L149.317 25.1706C149.146 25.1219 148.89 25.0853 148.549 25.0609C148.232 25.0121 147.951 24.9877 147.707 24.9877C147 24.9877 146.317 25.0853 145.659 25.2804C145 25.4511 144.403 25.7316 143.866 26.1219C143.354 26.5121 142.939 27.0365 142.622 27.695C142.329 28.3292 142.183 29.1219 142.183 30.0731V40.2438H136.732V20.2682H140.866L141.671 23.6341H141.927C142.317 22.9511 142.805 22.3292 143.39 21.7682C143.976 21.2072 144.646 20.756 145.403 20.4145C146.183 20.0731 147.012 19.9023 147.89 19.9023Z" fill="#4B7DFA"/>
<path d="M127.867 40.244H122.343V18.7318H115.245V14.1221H134.965V18.7318H127.867V40.244Z" fill="#4B7DFA"/>
<path d="M112.862 30.2194C112.862 31.878 112.63 33.3536 112.167 34.6462C111.728 35.9389 111.082 37.0365 110.228 37.9389C109.399 38.817 108.387 39.4877 107.191 39.9511C105.996 40.3902 104.643 40.6097 103.13 40.6097C101.74 40.6097 100.447 40.3902 99.2524 39.9511C98.0816 39.4877 97.0694 38.817 96.2158 37.9389C95.3621 37.0365 94.6914 35.9389 94.2036 34.6462C93.7402 33.3536 93.5085 31.878 93.5085 30.2194C93.5085 27.9999 93.8987 26.1341 94.6792 24.6219C95.4597 23.0853 96.5816 21.9145 98.045 21.1097C99.5085 20.3048 101.24 19.9023 103.24 19.9023C105.118 19.9023 106.777 20.3048 108.216 21.1097C109.655 21.9145 110.789 23.0853 111.618 24.6219C112.447 26.1341 112.862 27.9999 112.862 30.2194ZM99.0694 30.2194C99.0694 31.5365 99.2036 32.6462 99.4719 33.5487C99.7646 34.4267 100.216 35.0975 100.826 35.5609C101.435 35.9999 102.228 36.2194 103.204 36.2194C104.179 36.2194 104.96 35.9999 105.545 35.5609C106.155 35.0975 106.594 34.4267 106.862 33.5487C107.155 32.6462 107.301 31.5365 107.301 30.2194C107.301 28.9023 107.155 27.8048 106.862 26.9267C106.594 26.0487 106.155 25.3902 105.545 24.9511C104.935 24.5121 104.143 24.2926 103.167 24.2926C101.728 24.2926 100.679 24.7926 100.021 25.7926C99.3865 26.7682 99.0694 28.2438 99.0694 30.2194Z" fill="#4B7DFA"/>
<path d="M87.2672 36.2561C87.877 36.2561 88.4623 36.1951 89.0233 36.0732C89.5843 35.9512 90.1453 35.8049 90.7062 35.6342V39.6951C90.1209 39.9391 89.3892 40.1464 88.5111 40.3171C87.6575 40.5122 86.7184 40.6098 85.6941 40.6098C84.4989 40.6098 83.4258 40.4147 82.4745 40.0244C81.5477 39.6342 80.8038 38.9634 80.2428 38.0122C79.7062 37.0366 79.438 35.6951 79.438 33.9878V24.3659H76.8404V22.061L79.8404 20.2317L81.4136 16.0244H84.8892V20.2683H90.4867V24.3659H84.8892V33.9878C84.8892 34.7439 85.1087 35.3171 85.5477 35.7073C85.9867 36.0732 86.5599 36.2561 87.2672 36.2561Z" fill="#4B7DFA"/>
<path d="M1.36688 6.79183C0.0111084 9.45268 0.0111084 12.9359 0.0111084 19.9024V27.439H14.8577C16.0769 20.1717 22.3973 14.6341 30.0111 14.6341C37.6249 14.6341 43.9453 20.1717 45.1645 27.439H60.0111V19.9024C60.0111 12.9359 60.0111 9.45268 58.6553 6.79183C57.4628 4.45127 55.5598 2.54834 53.2193 1.35577C50.5584 0 47.0752 0 40.1087 0H19.9135C12.947 0 9.46379 0 6.80293 1.35577C4.46238 2.54834 2.55945 4.45127 1.36688 6.79183Z" fill="#4B7DFA"/>
<path d="M0.0111084 40.0976V32.561H14.8577C16.0769 39.8283 22.3973 45.3659 30.0111 45.3659C37.6249 45.3659 43.9453 39.8283 45.1645 32.561H60.0111V40.0976C60.0111 47.0641 60.0111 50.5473 58.6553 53.2082C57.4628 55.5487 55.5598 57.4517 53.2193 58.6442C50.5584 60 47.0752 60 40.1087 60H19.9135C12.947 60 9.46379 60 6.80293 58.6442C4.46238 57.4517 2.55945 55.5487 1.36688 53.2082C0.0111084 50.5473 0.0111084 47.0641 0.0111084 40.0976Z" fill="#4B7DFA"/>
<path d="M27.6588 16.6671C25.7768 16.9968 24.0286 17.7153 22.5 18.7367C22.4887 18.8639 22.4574 18.9913 22.4157 19.104C22.3124 19.3808 22.2528 19.9976 22.5804 20.7212L22.6396 20.8544C22.9493 21.5521 23.3079 22.3602 23.6124 22.4014C23.7765 22.4225 23.8377 22.5502 23.8861 22.6513C23.9344 22.752 23.97 22.8262 24.082 22.7413C24.2408 22.6175 24.3059 22.3893 24.3977 22.0674C24.4345 21.9384 24.4756 21.7942 24.5287 21.6357C24.5689 21.5141 24.6002 21.3994 24.6297 21.2917C24.7337 20.911 24.8141 20.6167 25.1787 20.4023C25.6465 20.1255 26.9431 19.2337 27.2269 18.9113C27.2887 18.8423 27.3522 18.7823 27.4128 18.7251C27.6327 18.5174 27.8147 18.3456 27.735 17.9144L27.7158 17.8133C27.6265 17.3459 27.5528 16.9601 27.6588 16.6671Z" fill="#4B7DFA"/>
<path d="M19.4376 21.547C19.0958 21.9739 18.7794 22.422 18.4905 22.889C18.6679 23.2446 18.8187 23.6147 18.5787 23.7381C18.4578 23.8012 18.4578 24.025 18.4578 24.23C18.4578 24.435 18.4578 24.6212 18.3369 24.6089C18.3006 24.6061 18.267 24.6046 18.2362 24.6032C18.06 24.5955 17.9725 24.5917 17.9725 24.3531C17.9725 24.3064 17.976 24.2553 17.9796 24.2027C17.9883 24.0743 17.9977 23.9369 17.9585 23.8314C17.0887 25.5276 16.5664 27.4313 16.4856 29.4487C17.0003 29.3898 17.4017 29.4992 17.545 29.6479C17.61 29.716 17.6696 29.8276 17.7297 29.94C17.8381 30.1428 17.948 30.3484 18.0934 30.3066C18.2353 30.2656 18.2383 30.0883 18.2418 29.878C18.2438 29.7561 18.246 29.623 18.2756 29.4989C18.3191 29.3175 18.4935 29.1034 18.6827 28.8713C18.8442 28.6731 19.0165 28.4617 19.1271 28.2462C19.19 28.1249 19.2394 28.0166 19.2832 27.9204C19.409 27.6443 19.4892 27.4681 19.714 27.3719C19.9447 27.2776 20.093 27.1587 20.2719 27.0153C20.3322 26.967 20.3959 26.9159 20.4674 26.8621C20.645 26.7292 20.8835 26.6065 21.0785 26.5061C21.1971 26.445 21.2998 26.3922 21.3627 26.3505C21.5257 26.2418 22.2545 25.8827 22.4963 25.9475C22.7399 26.0123 22.901 25.9247 22.6996 25.5638C22.6239 25.4294 22.5399 25.1946 22.4444 24.9276C22.2836 24.4777 22.09 23.9363 21.8481 23.6295C21.4804 23.1633 21.4252 23.0222 21.2627 22.6072L21.2383 22.545C21.0561 22.0754 20.8511 21.6725 20.7092 21.9913C20.5673 22.312 20.2642 22.7377 20.1012 22.3312C20.0878 22.2975 20.0756 22.2668 20.0644 22.2387C19.9955 22.0653 19.9655 21.9898 19.9194 21.9259C19.8839 21.8766 19.8388 21.8342 19.7589 21.7592L19.7561 21.7566C19.6473 21.6544 19.5492 21.5941 19.4376 21.547Z" fill="#4B7DFA"/>
<path d="M19.708 38.7802L19.7213 38.6969C19.7445 38.552 19.7633 38.4344 19.7754 38.3557C19.856 37.823 19.5143 37.4411 19.1691 37.2063C18.913 37.0342 18.6137 36.4196 18.3922 35.9646C18.3138 35.8036 18.2451 35.6625 18.1915 35.5681C18.0024 35.2277 18.1343 34.8704 18.2671 34.5106C18.2758 34.487 18.2845 34.4634 18.2931 34.4398C18.4368 34.0561 18.4981 33.7162 18.3544 33.4604C18.2125 33.2046 17.5222 32.8209 17.2384 32.693C17.0338 32.5989 16.8587 32.4957 16.6776 32.3491C16.6004 31.9079 16.5446 31.4594 16.5112 31.0046C16.662 30.8938 16.8001 30.7715 16.8739 30.6939C17.0772 30.4801 17.2384 30.7972 17.2611 31.0968C17.2666 31.1807 17.2592 31.2679 17.2522 31.3512C17.2343 31.5641 17.2184 31.7523 17.4223 31.7977C17.7062 31.8607 17.8078 31.9238 18.0093 32.3723C18.2143 32.8174 18.7434 32.6474 19.1271 32.3723C19.5161 32.0955 21.135 32.6281 21.3803 32.756C21.4497 32.7925 21.5373 32.8255 21.6327 32.8613C21.8714 32.951 22.1588 33.059 22.3316 33.2869C22.5787 33.6058 23.5738 34.5011 23.6334 34.5396C23.6497 34.5513 23.7681 34.5765 23.9407 34.6132C24.4166 34.7145 25.3049 34.9036 25.6045 35.1389C25.9114 35.3833 25.6481 36.1636 25.4319 36.8046C25.3629 37.009 25.2987 37.1993 25.2593 37.3535C25.0946 37.9895 24.5883 38.3924 24.3658 38.5624C24.2076 38.6845 23.3187 39.7524 22.7243 40.4666L22.7239 40.467L22.723 40.4681C22.4864 40.7524 22.2966 40.9804 22.2185 41.07C21.2885 40.4141 20.4449 39.6441 19.708 38.7802Z" fill="#4B7DFA"/>
<path d="M43.0779 33.2012C43.1113 33.1216 43.17 33.0018 43.2448 32.8611C43.4432 31.9388 43.5477 30.9816 43.5477 30C43.5477 25.7384 41.5784 21.9367 38.5002 19.4554C38.1723 19.5563 37.8719 19.6085 37.7638 19.5106C37.5615 19.3324 37.4668 19.3776 37.3605 19.4283C37.3278 19.4439 37.294 19.46 37.2557 19.4703C37.2557 19.4703 36.7687 19.3844 36.4656 19.0007C36.3017 18.7966 36.2084 18.7376 36.1043 18.6718C36.0137 18.6145 35.9149 18.552 35.7542 18.384C35.6549 18.2796 35.5773 18.1751 35.509 18.0831C35.3412 17.8569 35.2286 17.7052 34.9833 17.8111C34.6417 17.9583 33.1804 19.4685 32.611 20.1483C32.4704 20.3181 32.3021 20.4888 32.1362 20.657C31.6342 21.166 31.1547 21.6522 31.5352 22.0195C31.7774 22.2517 31.9634 22.3594 32.0987 22.4377C32.2484 22.5243 32.3361 22.5751 32.3692 22.7186L32.3821 22.775L32.3925 22.8213C32.4473 23.0648 32.5018 23.3067 32.5725 23.4019C32.6531 23.5088 33.1401 23.889 33.3837 23.3792C33.4468 23.2485 33.4961 23.1278 33.5394 23.0219C33.6656 22.7133 33.7405 22.5303 33.9531 22.5942C34.2369 22.6783 34.2965 22.8711 34.1528 23.253C34.1304 23.3136 34.1089 23.3798 34.0869 23.4476C33.9696 23.8092 33.834 24.2273 33.424 24.2096C33.1715 24.1987 32.9088 24.113 32.691 24.042C32.4886 23.9759 32.325 23.9226 32.2448 23.9538C32.1427 23.9938 32.0658 24.0683 31.976 24.1554C31.9241 24.2057 31.8678 24.2602 31.7998 24.3148C31.7505 24.3551 31.6728 24.4358 31.5781 24.5343C31.3228 24.7996 30.9438 25.1934 30.6627 25.2714C30.5499 25.3033 30.4299 25.3183 30.3235 25.3316C30.0679 25.3635 29.8902 25.3857 30.0758 25.6095C30.3386 25.9267 30.724 26.631 30.3596 26.61L30.3326 26.6082L30.2974 26.6059C29.9298 26.5817 29.3832 26.5457 29.3452 26.8868C29.3294 27.0272 29.2952 27.1454 29.2641 27.2526C29.2158 27.4195 29.1752 27.5597 29.2243 27.7155C29.3049 27.9713 29.5694 28.4601 29.8918 28.2902C29.9721 28.2479 30.0701 28.206 30.1748 28.1613C30.4994 28.0227 30.8877 27.8567 31.0096 27.5666C31.1726 27.1829 31.3565 26.7606 31.7613 26.7799C32.166 26.8009 33.1419 27.3336 33.0806 27.5245C33.0701 27.5572 33.0555 27.5974 33.0397 27.6408C32.9633 27.851 32.8595 28.1368 33.0613 28.0134C33.1651 27.9494 33.2618 27.8816 33.3496 27.82C33.4663 27.7382 33.5672 27.6674 33.6482 27.6314C33.7901 27.5666 33.9759 27.8452 34.0337 27.9503C34.095 28.0589 34.5015 28.2692 34.5821 27.9275C34.6381 27.6965 34.6932 27.7415 34.7981 27.827C34.8476 27.8673 34.9082 27.9166 34.9851 27.9503C35.1052 28.0031 35.3393 28.0497 35.5594 28.0936C35.7918 28.1398 36.0087 28.183 36.0591 28.2271C36.1642 28.3112 36.3867 28.567 36.1011 28.9069C35.8173 29.2468 35.4897 29.3782 35.0254 29.1207C34.7934 28.9938 34.5515 29.0453 34.3027 29.0983C34.0498 29.1522 33.7897 29.2076 33.5256 29.0786C33.2762 28.9581 33.1984 28.8141 33.1201 28.669C33.0322 28.5063 32.9435 28.3421 32.611 28.2078C31.9855 27.952 30.5628 28.2692 30.1143 28.3971C29.6924 28.5162 29.6517 28.5634 29.4951 28.7454L29.466 28.779L29.4508 28.7969C29.2256 29.0604 28.0872 30.3928 28.0872 31.1601C28.0872 31.9468 28.5322 34.0755 29.9724 33.8618C31.4144 33.648 32.2869 33.7759 32.1257 34.1999C31.9716 34.6 32.0353 34.7177 32.2595 35.1318L32.2613 35.1352C32.2762 35.1626 32.2917 35.1912 32.3079 35.2214C32.5666 35.7009 33.1633 38.8636 33.277 39.4664L33.2821 39.4929C33.3076 39.6248 33.3157 39.7655 33.3235 39.9009C33.3473 40.3142 33.3684 40.679 33.8725 40.5985C34.5435 40.4933 35.2531 40.3252 35.5352 39.7067C35.6461 39.4672 35.7203 39.215 35.7909 38.9749C35.9021 38.5969 36.0044 38.2489 36.2273 38.0282C36.3565 37.9002 36.4958 37.8173 36.6237 37.7413C36.858 37.602 37.0538 37.4855 37.0788 37.1557C37.0907 36.9972 37.0855 36.7717 37.0799 36.5277C37.0673 35.9841 37.0526 35.3483 37.2207 35.1548L37.2304 35.1438C37.4929 34.8474 38.6011 33.596 38.7205 33.0926C38.746 32.9866 38.7731 32.8971 38.796 32.8218C38.883 32.5351 38.9074 32.4549 38.5383 32.4549C38.0722 32.4549 37.2803 32.3918 37.0543 31.966C36.98 31.8228 36.8707 31.6361 36.7585 31.4445C36.5373 31.0666 36.3044 30.6689 36.3044 30.5434C36.3044 30.3524 36.6303 30.3717 36.7897 30.7764C36.9526 31.1776 37.5186 32.3935 38.1686 32.1342C38.2472 32.1033 38.3297 32.0718 38.4141 32.0396C39.0268 31.8056 39.7355 31.5349 39.7524 31.1776C39.7717 30.7764 39.4686 30.3068 39.141 30.3314C38.8151 30.3524 38.4717 30.1176 38.4717 29.8846C38.4717 29.699 38.5089 29.7148 38.7147 29.8023C38.7694 29.8255 38.8359 29.8537 38.9167 29.8846C39.0537 29.937 39.1573 30.0023 39.2596 30.0669C39.4479 30.1856 39.6322 30.3019 40.0135 30.3314C40.5603 30.3688 41.1782 30.8673 41.5217 31.1444C41.548 31.1657 41.5727 31.1856 41.5956 31.2039C41.8013 31.3653 42.1025 32.1191 42.3329 32.6956C42.4676 33.0327 42.5781 33.3091 42.6311 33.3712C42.7713 33.5447 42.9377 33.5447 43.0779 33.2012Z" fill="#4B7DFA"/>
</svg>
