<svg width="32" height="32" viewBox="0 0 32 32" fill="none" xmlns="http://www.w3.org/2000/svg">
<g clip-path="url(#clip0_83_7563)">
<path d="M-1 6V15H9.91732C10.1563 13.4247 10.9516 11.987 12.1592 10.9475C13.3667 9.90802 14.9067 9.33538 16.5 9.33333C18.0939 9.33462 19.6346 9.90692 20.8428 10.9465C22.051 11.9861 22.8468 13.4241 23.0859 15H34V6H-1ZM16.5 11.3333C15.2623 11.3333 14.0753 11.825 13.2002 12.7002C12.325 13.5753 11.8333 14.7623 11.8333 16C11.8333 17.2377 12.325 18.4247 13.2002 19.2998C14.0753 20.175 15.2623 20.6667 16.5 20.6667C17.1128 20.6667 17.7197 20.546 18.2859 20.3114C18.852 20.0769 19.3665 19.7332 19.7998 19.2998C20.2332 18.8665 20.5769 18.352 20.8114 17.7859C21.046 17.2197 21.1667 16.6128 21.1667 16C21.1667 15.3872 21.046 14.7803 20.8114 14.2141C20.5769 13.648 20.2332 13.1335 19.7998 12.7002C19.3665 12.2668 18.852 11.9231 18.2859 11.6886C17.7197 11.454 17.1128 11.3333 16.5 11.3333ZM-1 17V26H34V17H23.0827C22.8437 18.5753 22.0484 20.013 20.8408 21.0525C19.6333 22.092 18.0933 22.6646 16.5 22.6667C14.9061 22.6654 13.3654 22.0931 12.1572 21.0535C10.949 20.0139 10.1532 18.5759 9.91414 17H-1Z" fill="#6B6BE7"/>
</g>
<defs>
<clipPath id="clip0_83_7563">
<rect width="32" height="32" fill="white"/>
</clipPath>
</defs>
</svg>
