<svg width="24" height="24" viewBox="0 0 24 24" fill="none" xmlns="http://www.w3.org/2000/svg">
<g clip-path="url(#clip0_116_7705)">
<path d="M20 20C21.1046 20 22 19.1046 22 18L22 6.00002C22 4.89545 21.1046 4.00001 20 4.00001L4.00001 4C2.89544 4 2 4.89543 2 6L2 11.25H8.0702C8.42125 9.39935 10.0472 8 12 8C13.9528 8 15.5787 9.39935 15.9298 11.25H22V12.75H15.9298C15.5787 14.6006 13.9528 16 12 16C10.0472 16 8.42125 14.6006 8.0702 12.75H2L2 18C2 19.1046 2.89543 20 4 20H20Z" fill="#7878F2"/>
<path d="M14.5 12C14.5 13.3807 13.3807 14.5 12 14.5C10.6193 14.5 9.5 13.3807 9.5 12C9.5 10.6193 10.6193 9.5 12 9.5C13.3807 9.5 14.5 10.6193 14.5 12Z" fill="#7878F2"/>
</g>
<defs>
<clipPath id="clip0_116_7705">
<rect width="24" height="24" fill="white"/>
</clipPath>
</defs>
</svg>
