<svg width="16" height="16" viewBox="0 0 16 16" fill="none" xmlns="http://www.w3.org/2000/svg">
<path d="M6.95 0.942738C7.25722 0.77332 7.60023 0.679129 7.95089 0.667888C8.30155 0.656647 8.64989 0.728677 8.96733 0.878072L9.094 0.942738L13.6107 3.60607L13.6747 3.64807L13.736 3.6994L13.8073 3.7494C14.039 3.92314 14.2332 4.14191 14.3783 4.39257C14.5233 4.64323 14.6162 4.92062 14.6513 5.20807L14.6633 5.34274L14.6667 5.47874V10.3347C14.6667 11.0721 14.2867 11.7541 13.6973 12.1301L13.584 12.1967L9.04867 15.0647C8.43667 15.4007 7.70267 15.4214 7.046 15.1101L6.91533 15.0434L2.452 12.2187C2.13432 12.045 1.86565 11.7939 1.6709 11.4887C1.47616 11.1835 1.36165 10.834 1.338 10.4727L1.33333 10.3347V5.47807C1.33333 4.74074 1.71333 4.0594 2.31733 3.67474L6.95 0.942738ZM8 7.33341H7.33333L7.25533 7.33807C7.0933 7.35734 6.94396 7.43537 6.83561 7.55738C6.72725 7.67939 6.66741 7.8369 6.66741 8.00007C6.66741 8.16325 6.72725 8.32076 6.83561 8.44276C6.94396 8.56477 7.0933 8.6428 7.25533 8.66207L7.33333 8.66674V10.6667L7.338 10.7447C7.35555 10.8935 7.42272 11.0321 7.52867 11.1381C7.63463 11.244 7.77319 11.3112 7.922 11.3287L8 11.3334H8.66667L8.74467 11.3287C8.89348 11.3112 9.03204 11.244 9.13799 11.1381C9.24395 11.0321 9.31112 10.8935 9.32867 10.7447L9.33333 10.6667L9.32867 10.5887C9.31273 10.4527 9.25529 10.3249 9.16416 10.2227C9.07303 10.1205 8.95263 10.0488 8.81933 10.0174L8.74467 10.0041L8.66667 10.0001V8.00007L8.662 7.92207C8.64445 7.77326 8.57728 7.6347 8.47132 7.52875C8.36537 7.42279 8.22681 7.35562 8.078 7.33807L8 7.33341ZM8.00667 5.33341L7.922 5.33807C7.75997 5.35734 7.61063 5.43537 7.50227 5.55738C7.39392 5.67939 7.33407 5.8369 7.33407 6.00007C7.33407 6.16325 7.39392 6.32076 7.50227 6.44276C7.61063 6.56477 7.75997 6.6428 7.922 6.66207L8 6.66674L8.08466 6.66207C8.2467 6.6428 8.39604 6.56477 8.50439 6.44276C8.61274 6.32076 8.67259 6.16325 8.67259 6.00007C8.67259 5.8369 8.61274 5.67939 8.50439 5.55738C8.39604 5.43537 8.2467 5.35734 8.08466 5.33807L8.00667 5.33341Z" fill="#4B7DFA"/>
</svg>
