<svg width="28" height="28" viewBox="0 0 28 28" fill="none" xmlns="http://www.w3.org/2000/svg">
<path d="M15.6918 6.90607L15.6737 6.92389L10.9737 11.6239L5.44129 8.64491C5.23254 8.53251 5.08924 8.32803 5.05481 8.09346C5.02038 7.8589 5.09889 7.62186 5.26653 7.45422L8.00091 4.71985C8.20178 4.51897 8.49891 4.44883 8.76841 4.53867L15.7377 6.86176L15.6918 6.90607Z" fill="white"/>
<path d="M21.1384 12.2625L21.0941 12.3083L21.0763 12.3265L16.372 17.0307L19.3541 22.6115C19.4667 22.8221 19.6728 22.9665 19.9092 23.0004C20.1456 23.0343 20.384 22.9536 20.5512 22.783L23.2855 19.994C23.4825 19.793 23.5505 19.4987 23.4615 19.2318L21.1384 12.2625Z" fill="white"/>
<path d="M6.34375 15.0939H9.625L16.7344 7.98455L20.0156 4.81268C20.4362 4.39206 21.0067 4.15576 21.6016 4.15576C22.1964 4.15576 22.7669 4.39206 23.1875 4.81268C23.6081 5.2333 23.8444 5.80377 23.8444 6.39862C23.8444 6.99346 23.6081 7.56394 23.1875 7.98455L20.0156 11.2658L12.9062 18.3752V21.6564L10.7188 23.8439L9.07813 18.9221L4.15625 17.2814L6.34375 15.0939Z" fill="white"/>
</svg>
