<svg width="28" height="28" viewBox="0 0 28 28" fill="none" xmlns="http://www.w3.org/2000/svg">
<path d="M19.7588 9.75873L14.409 3.20502C14.283 3.05069 14.1008 2.95282 13.9026 2.93301L12.3557 2.77846C12.1066 2.75358 11.8616 2.85455 11.7024 3.04765C11.5432 3.24075 11.4908 3.50054 11.5627 3.74025L13.3683 9.75873L19.7588 9.75873Z" fill="white"/>
<path d="M13.3623 17.3991L11.5247 23.454C11.4511 23.6966 11.5051 23.9601 11.6682 24.1542C11.8313 24.3484 12.0815 24.447 12.3333 24.4162L13.9189 24.2228C14.111 24.1993 14.2866 24.1025 14.409 23.9526L19.7588 17.3991L13.3623 17.3991Z" fill="white"/>
<path d="M7.64071 8.93853L9.9609 11.2587H20.0151L24.5781 11.3361C25.173 11.3361 25.7434 11.5724 26.1641 11.993C26.5847 12.4136 26.821 12.9841 26.821 13.5789C26.821 14.1738 26.5847 14.7442 26.1641 15.1649C25.7434 15.5855 25.173 15.8218 24.5781 15.8218L20.0151 15.8991L9.9609 15.8991L7.64071 18.2193L5.69629 18.175L6.86731 13.5789L5.69629 8.9826L7.64071 8.93853Z" fill="white"/>
</svg>
