<svg width="29" height="28" viewBox="0 0 29 28" fill="none" xmlns="http://www.w3.org/2000/svg">
<path d="M12.1666 11.0833L6.65451 5.22155C6.16654 4.69521 6.24468 4.31075 6.82015 3.97789C7.90194 3.35215 8.74468 3.33515 9.88497 3.96092L15.6071 7.10117C16.0145 7.32472 16.414 7.55132 16.8333 7.67494" stroke="#6B6BE7" stroke-width="1.75" stroke-linecap="round" stroke-linejoin="round"/>
<path d="M15.0833 15.9405L17.5453 23.8814C17.7463 24.5298 18.1003 24.6474 18.6486 24.333C19.6795 23.7419 20.0951 23.0592 20.123 21.8292L20.2627 15.6565C20.2814 14.832 20.278 14.0252 20.9166 13.4167" stroke="#6B6BE7" stroke-width="1.75" stroke-linecap="round" stroke-linejoin="round"/>
<path d="M10.2165 12.815L12.4179 11.2065L17.5773 7.44489L17.5818 7.44156L17.5906 7.43514C17.7124 7.34601 19.5276 6.02274 20.5572 5.57174C21.8226 5.01741 23.0014 5.27512 24.2695 5.62931C24.9255 5.81251 25.2535 5.9041 25.4902 6.075C25.8656 6.34614 26.1098 6.76346 26.16 7.21991C26.1917 7.50758 26.1081 7.83365 25.9409 8.48579C25.6176 9.74664 25.2544 10.8829 24.1352 11.687C23.2245 12.3414 21.1552 13.2311 21.0165 13.2905L21.0066 13.2947L21.0013 13.2969L15.1203 15.8252L12.6079 16.9022C11.6969 17.2927 11.2415 17.4878 10.9316 17.8502C10.2059 18.6987 10.1034 20.2344 9.83251 21.2909C9.68283 21.8747 8.86204 22.8866 8.13066 22.7347C7.67912 22.6409 7.67047 22.0756 7.61427 21.7153L7.07322 18.2453C6.94383 17.4155 6.9339 17.3986 6.2703 16.8731L3.49548 14.6758C3.20727 14.4475 2.71552 14.1575 2.85898 13.7248C3.09137 13.0238 4.38974 12.8283 4.97703 12.9923C6.03971 13.2891 7.4387 13.9694 8.5463 13.7734C9.01922 13.6898 9.41833 13.3982 10.2165 12.815Z" fill="#6B6BE7" stroke="#6B6BE7" stroke-width="1.75" stroke-linecap="round" stroke-linejoin="round"/>
</svg>
