<svg width="16" height="16" viewBox="0 0 16 16" fill="none" xmlns="http://www.w3.org/2000/svg">
<g clip-path="url(#clip0_313_7940)">
<path d="M10.6135 8.15451L11.8434 10.6135H9.38359L9.90299 9.57633L10.6135 8.15451ZM15.8402 1.46683V14.5335C15.8402 15.2552 15.2552 15.8402 14.5335 15.8402H1.46683C0.74515 15.8402 0.160156 15.2552 0.160156 14.5335V1.46683C0.160156 0.745169 0.745169 0.160156 1.46683 0.160156H14.5335C15.2551 0.160156 15.8402 0.745169 15.8402 1.46683ZM14.4649 12.9345L11.1982 6.40112C10.9739 5.95099 10.3464 5.91253 10.0687 6.33188C10.054 6.35412 10.0407 6.37724 10.0288 6.40112L8.95239 8.55549C8.26001 8.41988 7.60339 8.14177 7.02424 7.73883C7.92693 6.71686 8.48546 5.43696 8.62082 4.08016H9.96016C10.4631 4.08016 10.7774 3.53571 10.526 3.10016C10.4093 2.89801 10.1936 2.77349 9.96016 2.77349H6.69349V2.12016C6.69349 1.61722 6.14904 1.30289 5.71349 1.55435C5.51135 1.67106 5.38683 1.88674 5.38683 2.12016V2.77349H2.12016C1.61722 2.77349 1.30289 3.31793 1.55435 3.75349C1.67106 3.95563 1.88674 4.08016 2.12016 4.08016H7.30436C7.17474 5.11101 6.73958 6.07948 6.05486 6.86091C5.76478 6.52228 5.51789 6.14892 5.31986 5.74942C5.08217 5.30619 4.45382 5.28647 4.18881 5.71392C4.07336 5.90012 4.05894 6.1318 4.15039 6.33089C4.40044 6.83513 4.71326 7.30572 5.08139 7.73148C4.2112 8.33313 3.17808 8.6548 2.12016 8.65349C1.61722 8.65349 1.30289 9.19793 1.55435 9.63349C1.67106 9.83564 1.88673 9.96017 2.12016 9.96016C3.53849 9.96167 4.91836 9.49903 6.04914 8.64287C6.73335 9.16585 7.51611 9.54529 8.35051 9.75844L6.76209 12.9345C6.53703 13.3846 6.88364 13.9096 7.38599 13.8794C7.61914 13.8654 7.82711 13.7281 7.93156 13.5192L8.73026 11.9202H12.4967L13.2954 13.5192C13.5205 13.9693 14.1484 14.007 14.4257 13.587C14.5544 13.3921 14.5693 13.1434 14.4649 12.9345Z" fill="#4B7DFA"/>
</g>
<defs>
<clipPath id="clip0_313_7940">
<rect width="16" height="16" fill="white"/>
</clipPath>
</defs>
</svg>
